<svg width="180" height="34" viewBox="0 0 180 34" fill="none" xmlns="http://www.w3.org/2000/svg">
<path d="M29.706 10.6194V19.6078H20.58L16.008 24.1108H29.706V26.6814C29.706 28.0997 28.578 29.2521 27.138 29.2521H7.554L25.29 11.7836L32.49 4.69215L32.472 4.67442L33.444 3.72299C32.232 1.50693 29.874 0 27.144 0H7.224C3.264 0 0 3.17341 0 7.07368V26.6874C0 26.8115 0.012 26.9356 0.018 27.0597L4.572 22.5743V16.7239H10.512L15.084 12.2209H4.572V7.07368C4.572 5.6554 5.79 4.50305 7.23 4.50305H26.154L8.412 21.9657L0.636 29.6244L0.738 29.6598L0.708 29.6894C1.86 32.0886 4.362 33.7551 7.23 33.7551H27.144C31.104 33.7551 34.278 30.5817 34.278 26.6814V6.12225L29.706 10.6194Z" fill="#5B9E8D"/>
<path d="M43.518 26.3143V28.3176H46.542V28.8731H43.518V31.0655H46.674V31.6269H42.846V25.7588H46.674V26.3202L43.518 26.3143Z" fill="white"/>
<path d="M54.594 25.7588V31.6269H53.49L50.994 27.6321L50.586 26.9761L50.388 26.6511L50.184 26.3261H50.166L50.172 26.5448L50.178 26.7693V27.2066V31.6328H49.506V25.7647H50.61L52.788 29.2631L53.358 30.185L53.64 30.64L53.922 31.101H53.94L53.934 30.8823L53.928 30.6578V30.2205V25.7647L54.594 25.7588Z" fill="white"/>
<path d="M59.826 28.7081H62.382C62.394 28.8618 62.4 29.0745 62.4 29.3464C62.4 30.4042 62.268 31.0601 62.004 31.3083C61.74 31.5565 61.05 31.6865 59.94 31.6865C58.89 31.6865 58.212 31.5388 57.912 31.2433C57.612 30.9478 57.462 30.2801 57.462 29.2459L57.456 28.3831L57.462 27.8631C57.462 26.9944 57.63 26.4152 57.96 26.1316C58.296 25.8479 58.968 25.7002 59.976 25.7002C60.99 25.7002 61.644 25.7947 61.938 25.9839C62.232 26.173 62.382 26.5925 62.382 27.2426V27.4671H61.722V27.3194C61.722 26.8407 61.62 26.5453 61.422 26.433C61.224 26.3207 60.702 26.2616 59.862 26.2616C59.088 26.2616 58.596 26.3502 58.404 26.5334C58.206 26.7166 58.11 27.1717 58.11 27.8985L58.104 28.6786L58.11 29.5177C58.11 30.2564 58.218 30.7115 58.434 30.8828C58.65 31.0542 59.232 31.1369 60.168 31.1369C60.888 31.1369 61.332 31.0542 61.506 30.8947C61.674 30.7351 61.758 30.3155 61.758 29.6359C61.758 29.5827 61.746 29.4586 61.722 29.2754H59.826V28.7081Z" fill="white"/>
<path d="M65.634 26.3143V28.3176H68.658V28.8731H65.634V31.0655H68.79V31.6269H64.962V25.7588H68.79V26.3202L65.634 26.3143Z" fill="white"/>
<path d="M76.716 25.7588V31.6269H75.612L73.116 27.6321L72.708 26.9761L72.51 26.6511L72.312 26.3261H72.294L72.3 26.5448L72.306 26.7693V27.2066V31.6328H71.634V25.7647H72.732L74.91 29.2631L75.48 30.185L75.762 30.64L76.044 31.101H76.062L76.056 30.8823L76.05 30.6578V30.2205V25.7647L76.716 25.7588Z" fill="white"/>
<path d="M84.648 25.7588V31.6269H83.976V28.9026H80.49V31.6269H79.818V25.7588H80.49V28.3472H83.976V25.7588H84.648Z" fill="white"/>
<path d="M91.41 30.3859H88.392L87.93 31.6269H87.216L89.4 25.7588H90.342L92.568 31.6269H91.866L91.41 30.3859ZM91.212 29.8836L89.886 26.2966L88.584 29.8836H91.212Z" fill="white"/>
<path d="M95.1541 31.6269V25.7588H97.9921C98.6341 25.7588 99.084 25.8829 99.348 26.1311C99.612 26.3793 99.744 26.8107 99.744 27.4312C99.744 27.9749 99.672 28.3531 99.528 28.5658C99.384 28.7785 99.114 28.9204 98.7121 28.9795V28.9913C99.342 29.0386 99.66 29.4168 99.66 30.1259V31.6269H98.988V30.2796C98.988 29.5941 98.688 29.2513 98.082 29.2513H97.8601H95.8321V31.6269H95.1541ZM95.8261 28.6899H97.77C98.28 28.6899 98.628 28.6131 98.82 28.4594C99.006 28.3058 99.096 28.0162 99.096 27.5907C99.096 27.0589 99.03 26.7161 98.886 26.5566C98.748 26.397 98.454 26.3143 97.9981 26.3143H95.8261V28.6899Z" fill="white"/>
<path d="M103.362 25.7588V31.6269H102.69V25.7588H103.362Z" fill="white"/>
<path d="M110.142 30.3859H107.124L106.662 31.6269H105.948L108.132 25.7588H109.074L111.3 31.6269H110.598L110.142 30.3859ZM109.944 29.8836L108.624 26.2966L107.316 29.8836H109.944Z" fill="white"/>
<path d="M82.998 14.0589H75.546L74.472 17.321H71.004L76.746 0.319336H81.666L87.498 17.321H84.096L82.998 14.0589ZM82.242 11.6833L79.254 2.82497L76.32 11.6833H82.242Z" fill="white"/>
<path d="M121.656 0.301808V3.00245L112.122 14.4905V14.591H121.77V17.3094H107.97V14.5555L117.432 3.12064V3.01427H108.39V0.295898L121.656 0.301808Z" fill="white"/>
<path d="M88.458 0.112305H91.2L102.864 13.2432H102.966V0.319138H105.726V17.3208H102.93L91.314 4.2726H91.212V17.3267H88.458V0.112305Z" fill="white"/>
<path d="M162.738 0.112305H165.48L177.144 13.2432H177.246V0.319138H180V17.3208H177.204L165.594 4.2726H165.492V17.3267H162.732V0.112305H162.738Z" fill="white"/>
<path d="M46.062 3.01422V7.6H52.53V10.3184H46.062V17.3034H42.786V0.301758H54.858V3.02013L46.062 3.01422Z" fill="white"/>
<path d="M146.544 0.319336V14.4312H154.638V17.321H143.268V0.319336H146.544Z" fill="white"/>
<path d="M159.996 0.319336V17.321H156.72V0.319336H159.996Z" fill="white"/>
<path d="M137.226 17.6044H127.482C125.238 17.6044 123.414 15.8079 123.414 13.5978V4.00665C123.414 1.79649 125.238 0 127.482 0H137.226C139.47 0 141.294 1.79649 141.294 4.00665V13.6037C141.294 15.8079 139.47 17.6044 137.226 17.6044ZM127.482 3.28569C127.08 3.28569 126.756 3.6048 126.756 4.00074V13.5978C126.756 13.9937 127.08 14.3128 127.482 14.3128H137.226C137.628 14.3128 137.952 13.9937 137.952 13.5978V4.00665C137.952 3.61071 137.628 3.2916 137.226 3.2916L127.482 3.28569Z" fill="white"/>
<path d="M70.05 6.54796C70.05 6.34704 70.044 6.15202 70.038 5.96883C70.044 5.762 70.05 5.54925 70.05 5.32469C70.05 3.43365 69.648 2.12174 68.85 1.40078C68.046 0.679816 66.594 0.319336 64.476 0.319336H55.962V5.24787V11.5592V17.3269H59.238V11.5947V11.5592H63.78L66.792 17.3269H69.99L66.918 11.3347C67.758 11.1574 68.406 10.8737 68.844 10.4719C69.654 9.75091 70.05 8.44491 70.05 6.54796ZM59.238 5.24787V3.03771H64.17C65.238 3.03771 65.934 3.215 66.252 3.56957C66.504 3.85322 66.654 4.41463 66.708 5.25378H66.702C66.72 5.46652 66.726 5.69699 66.726 5.94519C66.726 7.12118 66.54 7.90124 66.174 8.29127C65.952 8.52765 65.592 8.69311 65.1 8.78766C64.83 8.82903 64.518 8.84676 64.17 8.84676H59.238V5.24787Z" fill="white"/>
</svg>
